Coordinates
version=1
nRows=9
nColumns=36
inDegrees=yes

Units are S.I. units (second, meters, Newtons, ...)
If the header above contains a line with 'inDegrees', this indicates whether rotational values are in degrees (yes) or radians (no).

endheader
time	pelvis_tilt	pelvis_list	pelvis_rotation	pelvis_tx	pelvis_ty	pelvis_tz	hip_flexion_r	hip_adduction_r	hip_rotation_r	knee_angle_r	knee_angle_r_beta	ankle_angle_r	subtalar_angle_r	mtp_angle_r	hip_flexion_l	hip_adduction_l	hip_rotation_l	knee_angle_l	knee_angle_l_beta	ankle_angle_l	subtalar_angle_l	mtp_angle_l	lumbar_extension	lumbar_bending	lumbar_rotation	arm_flex_r	arm_add_r	arm_rot_r	elbow_flex_r	pro_sup_r	arm_flex_l	arm_add_l	arm_rot_l	elbow_flex_l	pro_sup_l
      4.20000000	    -17.31215267	     -2.13050670	     -4.07664619	      0.57065788	      0.85440083	      0.34720044	     48.53917259	     -8.01675230	    -10.19835420	     53.91495032	      0.94099340	     12.56935258	    -29.17080064	     -7.49999987	     52.35924747	    -15.05112006	     -0.03232865	     55.44409845	      0.96768207	     12.86119595	    -20.63338128	     -7.49999987	    -36.50090484	      5.73931207	      3.42613719	     24.06154432	    -14.77901458	     -2.32536048	     33.74467051	     86.10551831	     19.53291413	    -10.94059491	     -9.66926832	     31.68885579	     84.03272131
      4.21666670	    -16.26968179	     -2.08327193	     -3.88284353	      0.57110250	      0.86404630	      0.34685974	     45.64030899	     -7.98311890	    -10.83356677	     51.04638451	      0.89092748	     11.33488306	    -29.08843794	     -7.49999987	     49.36471716	    -14.92193919	     -0.73433820	     52.42499538	      0.91498878	     11.55925203	    -20.45590349	     -7.49999987	    -35.18082544	      5.45750950	      3.04495562	     22.82359488	    -14.22581744	     -2.06691984	     32.37781245	     86.31030930	     18.58586355	    -10.93976440	     -9.07517522	     30.25238130	     84.40847070
      4.23333330	    -15.64143634	     -1.78830856	     -3.76104392	      0.56656097	      0.87480025	      0.34490260	     43.48845907	     -8.18194569	    -11.35594730	     48.43933900	      0.84542595	     10.08374039	    -28.74843416	     -7.49999987	     46.93446009	    -14.65505023	     -1.70427174	     49.52467516	      0.86436864	     10.13275092	    -20.19892168	     -7.49999987	    -33.53607025	      5.01967881	      2.53522078	     21.70365499	    -13.74301108	     -1.84631254	     31.34346430	     86.50986532	     17.80044908	    -11.09065169	     -8.20994048	     29.21128167	     84.84300876
      4.25000000	    -15.16749656	     -1.45202413	     -3.76937152	      0.56801772	      0.88090628	      0.34521165	     41.49590940	     -8.33082034	    -11.92330840	     45.73200560	      0.79817407	      9.33509811	    -28.00417688	     -7.49999987	     44.67924366	    -14.30932263	     -2.56714491	     46.68598201	      0.81482410	      8.85887025	    -20.29109200	     -7.49999987	    -31.29063051	      4.40831190	      2.14295981	     20.58128830	    -13.31778425	     -0.92861278	     30.18446901	     84.48206038	     17.01140380	    -11.37666386	     -6.23211826	     27.78687990	     83.31272238
      4.26666670	    -14.84440618	     -1.33840095	     -3.75223974	      0.57007789	      0.88914177	      0.34577989	     39.35732575	     -8.21840142	    -12.58636344	     42.56724193	      0.74293853	      8.22611826	    -27.41020662	     -7.49999987	     42.67923120	    -14.13562897	     -3.27981361	     43.89548535	      0.76612075	      7.66154903	    -20.23181035	     -7.49999987	    -29.28044243	      4.14396624	      1.79653975	     19.41330687	    -12.90919504	     -0.63052661	     29.56217699	     84.46076832	     16.14017071	    -11.55873146	     -5.66646861	     27.08217565	     83.39386707
      4.28333330	    -13.93709328	     -1.05397965	     -3.87993022	      0.57765605	      0.90506806	      0.34826300	     36.15252009	     -8.15300734	    -13.35706261	     38.61706869	      0.67399500	      7.16460273	    -26.12847784	     -7.49999987	     39.14050907	    -13.77314412	     -4.44785578	     39.91994276	      0.69673444	      5.85947137	    -20.30268996	     -7.49999987	    -27.50555996	      3.56610678	      1.59337925	     18.46778112	    -12.64357452	      0.48792484	     28.18060244	     87.29429078	     15.43618608	    -11.98594407	     -3.95054889	     25.81669102	     86.11440233
      4.30000000	    -12.57413236	     -0.90735778	     -4.05426514	      0.58346476	      0.92087968	      0.34546185	     32.17092643	     -7.97662274	    -14.30023298	     34.17649561	      0.59649238	      6.01594715	    -24.34064309	     -7.49999987	     34.81707083	    -13.51051094	     -5.90876468	     35.44364212	      0.61860825	      3.96090824	    -19.79779737	     -7.49999987	    -26.49687103	      3.16748424	      1.44771480	     17.53994661	    -12.25872629	      0.65774803	     27.13332353	     88.20366016	     14.61027363	    -11.92098957	     -4.30987089	     25.10170942	     86.74445810
      4.31666670	    -11.55236699	     -0.85680815	     -4.22085836	      0.58580004	      0.93000765	      0.34595627	     28.75334827	     -7.63543564	    -15.11385971	     30.06645090	      0.52475856	      4.83347800	    -22.50970946	     -7.49999987	     31.13254830	    -13.28661358	     -7.23173805	     31.31413276	      0.54653472	      2.34011176	    -19.13290366	     -7.49999987	    -25.16766427	      2.80291703	      1.43138883	     16.32977620	    -11.99363023	      1.01384309	     26.20452655	     88.79536660	     13.69298113	    -11.95332909	     -4.29601343	     24.68768166	     87.14287367
      4.33333330	    -10.43862335	     -0.93217366	     -4.25556702	      0.59188993	      0.93674543	      0.34776457	     25.31372880	     -7.22133011	    -16.16640308	     26.24288107	      0.45802468	      4.10809861	    -20.34364631	     -7.49999987	     27.58144012	    -13.12757259	     -8.40841605	     27.58323185	      0.48141821	      1.09642155	    -18.28039897	     -7.49999987	    -23.95525033	      2.61499580	      1.40288881	     15.12673895	    -11.73508164	      1.36612354	     25.22047365	     89.29380388	     12.74792719	    -11.95643888	     -4.43255543	     24.22574306	     87.55782174
